<svg xmlns="http://www.w3.org/2000/svg" viewBox="0 0 32 32" width="128" height="128" shape-rendering="crispEdges">
  <!-- ANCHOR TREE — Stable/Well-Aligned Plant -->
  <!-- Canopy (rich healthy green) -->
  <rect x="10" y="2" width="4" height="4" fill="#4aaa6a"/>
  <rect x="14" y="2" width="4" height="4" fill="#5abb7a"/>
  <rect x="18" y="2" width="4" height="4" fill="#4aaa6a"/>
  <rect x="6" y="6" width="4" height="4" fill="#3a9a5a"/>
  <rect x="10" y="6" width="4" height="4" fill="#5abb7a"/>
  <rect x="14" y="6" width="4" height="4" fill="#6bbe8a"/>
  <rect x="18" y="6" width="4" height="4" fill="#5abb7a"/>
  <rect x="22" y="6" width="4" height="4" fill="#3a9a5a"/>
  <rect x="4" y="10" width="4" height="4" fill="#348a54"/>
  <rect x="8" y="10" width="4" height="4" fill="#4aaa6a"/>
  <rect x="12" y="10" width="4" height="4" fill="#5abb7a"/>
  <rect x="16" y="10" width="4" height="4" fill="#5abb7a"/>
  <rect x="20" y="10" width="4" height="4" fill="#4aaa6a"/>
  <rect x="24" y="10" width="4" height="4" fill="#348a54"/>
  <rect x="6" y="14" width="4" height="4" fill="#3a8f5c"/>
  <rect x="10" y="14" width="4" height="4" fill="#4aaa6a"/>
  <rect x="14" y="14" width="4" height="4" fill="#4aaa6a"/>
  <rect x="18" y="14" width="4" height="4" fill="#4aaa6a"/>
  <rect x="22" y="14" width="4" height="4" fill="#3a8f5c"/>
  <!-- Trunk (sturdy brown) -->
  <rect x="12" y="18" width="4" height="4" fill="#8B5E3C"/>
  <rect x="16" y="18" width="4" height="4" fill="#8B5E3C"/>
  <rect x="12" y="22" width="4" height="4" fill="#7a5030"/>
  <rect x="16" y="22" width="4" height="4" fill="#7a5030"/>
  <rect x="12" y="26" width="4" height="4" fill="#6a4428"/>
  <rect x="16" y="26" width="4" height="4" fill="#6a4428"/>
  <!-- Roots -->
  <rect x="8" y="28" width="4" height="4" fill="#5a3a20"/>
  <rect x="12" y="30" width="4" height="2" fill="#5a3a20"/>
  <rect x="16" y="30" width="4" height="2" fill="#5a3a20"/>
  <rect x="20" y="28" width="4" height="4" fill="#5a3a20"/>
  <!-- Golden fruit/light dots (reward for stability) -->
  <rect x="8" y="8" width="2" height="2" fill="#f0c850"/>
  <rect x="20" y="4" width="2" height="2" fill="#f0c850"/>
  <rect x="14" y="4" width="2" height="2" fill="#f0c850"/>
  <rect x="22" y="12" width="2" height="2" fill="#f0c850"/>
</svg>
