<svg xmlns="http://www.w3.org/2000/svg" viewBox="0 0 32 32" width="128" height="128" shape-rendering="crispEdges">
  <!-- CALM FERN — Neutral Mood -->
  <!-- Center stem -->
  <rect x="14" y="4" width="4" height="4" fill="#3a8f5c"/>
  <rect x="14" y="8" width="4" height="4" fill="#348a54"/>
  <rect x="14" y="12" width="4" height="4" fill="#2d7a4a"/>
  <rect x="14" y="16" width="4" height="4" fill="#287040"/>
  <rect x="14" y="20" width="4" height="4" fill="#245e3a"/>
  <rect x="14" y="24" width="4" height="4" fill="#1e5030"/>
  <rect x="14" y="28" width="4" height="4" fill="#1a4428"/>
  <!-- Right fronds -->
  <rect x="18" y="6" width="4" height="4" fill="#6bbe8a"/>
  <rect x="22" y="4" width="4" height="4" fill="#7ec9a0"/>
  <rect x="18" y="10" width="4" height="4" fill="#5aae7a"/>
  <rect x="22" y="8" width="4" height="4" fill="#6bbe8a"/>
  <rect x="26" y="6" width="4" height="4" fill="#8ad4a8"/>
  <rect x="18" y="14" width="4" height="4" fill="#4a9e6a"/>
  <rect x="22" y="12" width="4" height="4" fill="#5aae7a"/>
  <rect x="18" y="18" width="4" height="4" fill="#3a8f5c"/>
  <rect x="22" y="16" width="4" height="4" fill="#4a9e6a"/>
  <rect x="18" y="22" width="4" height="4" fill="#348a54"/>
  <!-- Left fronds -->
  <rect x="10" y="8" width="4" height="4" fill="#6bbe8a"/>
  <rect x="6" y="6" width="4" height="4" fill="#7ec9a0"/>
  <rect x="2" y="4" width="4" height="4" fill="#8ad4a8"/>
  <rect x="10" y="12" width="4" height="4" fill="#5aae7a"/>
  <rect x="6" y="10" width="4" height="4" fill="#6bbe8a"/>
  <rect x="10" y="16" width="4" height="4" fill="#4a9e6a"/>
  <rect x="6" y="14" width="4" height="4" fill="#5aae7a"/>
  <rect x="10" y="20" width="4" height="4" fill="#3a8f5c"/>
  <rect x="6" y="18" width="4" height="4" fill="#4a9e6a"/>
  <rect x="10" y="24" width="4" height="4" fill="#348a54"/>
  <!-- Top curl -->
  <rect x="12" y="2" width="4" height="4" fill="#8ad4a8"/>
  <rect x="16" y="2" width="4" height="4" fill="#7ec9a0"/>
</svg>
