<svg xmlns="http://www.w3.org/2000/svg" width="192" height="208" viewBox="0 0 192 208" shape-rendering="crispEdges">
  <rect x="32" y="0" width="16" height="16" fill="#d2691e"/>
  <rect x="144" y="0" width="16" height="16" fill="#d2691e"/>
  <rect x="16" y="16" width="16" height="16" fill="#d2691e"/>
  <rect x="32" y="16" width="16" height="16" fill="#d2691e"/>
  <rect x="144" y="16" width="16" height="16" fill="#d2691e"/>
  <rect x="160" y="16" width="16" height="16" fill="#d2691e"/>
  <rect x="16" y="32" width="16" height="16" fill="#d2691e"/>
  <rect x="32" y="32" width="16" height="16" fill="#ffb464"/>
  <rect x="48" y="32" width="16" height="16" fill="#d2691e"/>
  <rect x="128" y="32" width="16" height="16" fill="#d2691e"/>
  <rect x="144" y="32" width="16" height="16" fill="#ffb464"/>
  <rect x="160" y="32" width="16" height="16" fill="#d2691e"/>
  <rect x="0" y="48" width="16" height="16" fill="#d2691e"/>
  <rect x="16" y="48" width="16" height="16" fill="#d2691e"/>
  <rect x="32" y="48" width="16" height="16" fill="#d2691e"/>
  <rect x="48" y="48" width="16" height="16" fill="#d2691e"/>
  <rect x="64" y="48" width="16" height="16" fill="#d2691e"/>
  <rect x="80" y="48" width="16" height="16" fill="#d2691e"/>
  <rect x="96" y="48" width="16" height="16" fill="#d2691e"/>
  <rect x="112" y="48" width="16" height="16" fill="#d2691e"/>
  <rect x="128" y="48" width="16" height="16" fill="#d2691e"/>
  <rect x="144" y="48" width="16" height="16" fill="#d2691e"/>
  <rect x="160" y="48" width="16" height="16" fill="#d2691e"/>
  <rect x="176" y="48" width="16" height="16" fill="#d2691e"/>
  <rect x="0" y="64" width="16" height="16" fill="#d2691e"/>
  <rect x="16" y="64" width="16" height="16" fill="#d2691e"/>
  <rect x="32" y="64" width="16" height="16" fill="#d2691e"/>
  <rect x="48" y="64" width="16" height="16" fill="#d2691e"/>
  <rect x="64" y="64" width="16" height="16" fill="#f08c32"/>
  <rect x="80" y="64" width="16" height="16" fill="#f08c32"/>
  <rect x="96" y="64" width="16" height="16" fill="#f08c32"/>
  <rect x="112" y="64" width="16" height="16" fill="#f08c32"/>
  <rect x="128" y="64" width="16" height="16" fill="#d2691e"/>
  <rect x="144" y="64" width="16" height="16" fill="#d2691e"/>
  <rect x="160" y="64" width="16" height="16" fill="#d2691e"/>
  <rect x="176" y="64" width="16" height="16" fill="#d2691e"/>
  <rect x="0" y="80" width="16" height="16" fill="#d2691e"/>
  <rect x="16" y="80" width="16" height="16" fill="#f08c32"/>
  <rect x="32" y="80" width="16" height="16" fill="#f08c32"/>
  <rect x="48" y="80" width="16" height="16" fill="#f08c32"/>
  <rect x="64" y="80" width="16" height="16" fill="#f08c32"/>
  <rect x="80" y="80" width="16" height="16" fill="#f08c32"/>
  <rect x="96" y="80" width="16" height="16" fill="#f08c32"/>
  <rect x="112" y="80" width="16" height="16" fill="#f08c32"/>
  <rect x="128" y="80" width="16" height="16" fill="#f08c32"/>
  <rect x="144" y="80" width="16" height="16" fill="#f08c32"/>
  <rect x="160" y="80" width="16" height="16" fill="#f08c32"/>
  <rect x="176" y="80" width="16" height="16" fill="#d2691e"/>
  <rect x="0" y="96" width="16" height="16" fill="#d2691e"/>
  <rect x="16" y="96" width="16" height="16" fill="#f08c32"/>
  <rect x="32" y="96" width="16" height="16" fill="#282828"/>
  <rect x="48" y="96" width="16" height="16" fill="#f08c32"/>
  <rect x="64" y="96" width="16" height="16" fill="#f08c32"/>
  <rect x="80" y="96" width="16" height="16" fill="#f08c32"/>
  <rect x="96" y="96" width="16" height="16" fill="#f08c32"/>
  <rect x="112" y="96" width="16" height="16" fill="#f08c32"/>
  <rect x="128" y="96" width="16" height="16" fill="#f08c32"/>
  <rect x="144" y="96" width="16" height="16" fill="#282828"/>
  <rect x="160" y="96" width="16" height="16" fill="#f08c32"/>
  <rect x="176" y="96" width="16" height="16" fill="#d2691e"/>
  <rect x="0" y="112" width="16" height="16" fill="#d2691e"/>
  <rect x="16" y="112" width="16" height="16" fill="#f08c32"/>
  <rect x="32" y="112" width="16" height="16" fill="#f08c32"/>
  <rect x="48" y="112" width="16" height="16" fill="#f08c32"/>
  <rect x="64" y="112" width="16" height="16" fill="#f08c32"/>
  <rect x="80" y="112" width="16" height="16" fill="#282828"/>
  <rect x="96" y="112" width="16" height="16" fill="#282828"/>
  <rect x="112" y="112" width="16" height="16" fill="#f08c32"/>
  <rect x="128" y="112" width="16" height="16" fill="#f08c32"/>
  <rect x="144" y="112" width="16" height="16" fill="#f08c32"/>
  <rect x="160" y="112" width="16" height="16" fill="#f08c32"/>
  <rect x="176" y="112" width="16" height="16" fill="#d2691e"/>
  <rect x="16" y="128" width="16" height="16" fill="#d2691e"/>
  <rect x="32" y="128" width="16" height="16" fill="#f08c32"/>
  <rect x="48" y="128" width="16" height="16" fill="#f08c32"/>
  <rect x="64" y="128" width="16" height="16" fill="#ffdcb4"/>
  <rect x="80" y="128" width="16" height="16" fill="#ffdcb4"/>
  <rect x="96" y="128" width="16" height="16" fill="#ffdcb4"/>
  <rect x="112" y="128" width="16" height="16" fill="#ffdcb4"/>
  <rect x="128" y="128" width="16" height="16" fill="#f08c32"/>
  <rect x="144" y="128" width="16" height="16" fill="#f08c32"/>
  <rect x="160" y="128" width="16" height="16" fill="#d2691e"/>
  <rect x="32" y="144" width="16" height="16" fill="#d2691e"/>
  <rect x="48" y="144" width="16" height="16" fill="#ffdcb4"/>
  <rect x="64" y="144" width="16" height="16" fill="#ffdcb4"/>
  <rect x="80" y="144" width="16" height="16" fill="#ffdcb4"/>
  <rect x="96" y="144" width="16" height="16" fill="#ffdcb4"/>
  <rect x="112" y="144" width="16" height="16" fill="#ffdcb4"/>
  <rect x="128" y="144" width="16" height="16" fill="#ffdcb4"/>
  <rect x="144" y="144" width="16" height="16" fill="#d2691e"/>
  <rect x="48" y="160" width="16" height="16" fill="#d2691e"/>
  <rect x="64" y="160" width="16" height="16" fill="#d2691e"/>
  <rect x="80" y="160" width="16" height="16" fill="#d2691e"/>
  <rect x="96" y="160" width="16" height="16" fill="#d2691e"/>
  <rect x="112" y="160" width="16" height="16" fill="#d2691e"/>
  <rect x="128" y="160" width="16" height="16" fill="#d2691e"/>
  <rect x="32" y="176" width="16" height="16" fill="#d2691e"/>
  <rect x="48" y="176" width="16" height="16" fill="#d2691e"/>
  <rect x="128" y="176" width="16" height="16" fill="#d2691e"/>
  <rect x="144" y="176" width="16" height="16" fill="#d2691e"/>
  <rect x="32" y="192" width="16" height="16" fill="#d2691e"/>
  <rect x="144" y="192" width="16" height="16" fill="#d2691e"/>
</svg>