<svg xmlns="http://www.w3.org/2000/svg" width="160" height="224" viewBox="0 0 160 224" shape-rendering="crispEdges">
  <rect x="48" y="0" width="16" height="16" fill="#228b22"/>
  <rect x="64" y="0" width="16" height="16" fill="#228b22"/>
  <rect x="80" y="0" width="16" height="16" fill="#228b22"/>
  <rect x="32" y="16" width="16" height="16" fill="#228b22"/>
  <rect x="48" y="16" width="16" height="16" fill="#32b432"/>
  <rect x="64" y="16" width="16" height="16" fill="#32b432"/>
  <rect x="80" y="16" width="16" height="16" fill="#32b432"/>
  <rect x="96" y="16" width="16" height="16" fill="#228b22"/>
  <rect x="16" y="32" width="16" height="16" fill="#228b22"/>
  <rect x="32" y="32" width="16" height="16" fill="#32b432"/>
  <rect x="48" y="32" width="16" height="16" fill="#32b432"/>
  <rect x="64" y="32" width="16" height="16" fill="#32b432"/>
  <rect x="80" y="32" width="16" height="16" fill="#32b432"/>
  <rect x="96" y="32" width="16" height="16" fill="#32b432"/>
  <rect x="112" y="32" width="16" height="16" fill="#228b22"/>
  <rect x="16" y="48" width="16" height="16" fill="#228b22"/>
  <rect x="32" y="48" width="16" height="16" fill="#32b432"/>
  <rect x="48" y="48" width="16" height="16" fill="#ffffff"/>
  <rect x="64" y="48" width="16" height="16" fill="#282828"/>
  <rect x="80" y="48" width="16" height="16" fill="#32b432"/>
  <rect x="96" y="48" width="16" height="16" fill="#32b432"/>
  <rect x="112" y="48" width="16" height="16" fill="#228b22"/>
  <rect x="16" y="64" width="16" height="16" fill="#228b22"/>
  <rect x="32" y="64" width="16" height="16" fill="#32b432"/>
  <rect x="48" y="64" width="16" height="16" fill="#32b432"/>
  <rect x="64" y="64" width="16" height="16" fill="#32b432"/>
  <rect x="80" y="64" width="16" height="16" fill="#32b432"/>
  <rect x="96" y="64" width="16" height="16" fill="#228b22"/>
  <rect x="112" y="64" width="16" height="16" fill="#228b22"/>
  <rect x="0" y="80" width="16" height="16" fill="#ffdc32"/>
  <rect x="16" y="80" width="16" height="16" fill="#ffdc32"/>
  <rect x="32" y="80" width="16" height="16" fill="#228b22"/>
  <rect x="48" y="80" width="16" height="16" fill="#32b432"/>
  <rect x="64" y="80" width="16" height="16" fill="#32b432"/>
  <rect x="80" y="80" width="16" height="16" fill="#228b22"/>
  <rect x="96" y="80" width="16" height="16" fill="#228b22"/>
  <rect x="16" y="96" width="16" height="16" fill="#ffdc32"/>
  <rect x="32" y="96" width="16" height="16" fill="#ffdc32"/>
  <rect x="48" y="96" width="16" height="16" fill="#228b22"/>
  <rect x="64" y="96" width="16" height="16" fill="#228b22"/>
  <rect x="80" y="96" width="16" height="16" fill="#32b432"/>
  <rect x="96" y="96" width="16" height="16" fill="#32b432"/>
  <rect x="112" y="96" width="16" height="16" fill="#228b22"/>
  <rect x="32" y="112" width="16" height="16" fill="#228b22"/>
  <rect x="48" y="112" width="16" height="16" fill="#32b432"/>
  <rect x="64" y="112" width="16" height="16" fill="#32b432"/>
  <rect x="80" y="112" width="16" height="16" fill="#32b432"/>
  <rect x="96" y="112" width="16" height="16" fill="#32b432"/>
  <rect x="112" y="112" width="16" height="16" fill="#32b432"/>
  <rect x="128" y="112" width="16" height="16" fill="#228b22"/>
  <rect x="32" y="128" width="16" height="16" fill="#228b22"/>
  <rect x="48" y="128" width="16" height="16" fill="#228b22"/>
  <rect x="64" y="128" width="16" height="16" fill="#32b432"/>
  <rect x="80" y="128" width="16" height="16" fill="#32b432"/>
  <rect x="96" y="128" width="16" height="16" fill="#32b432"/>
  <rect x="112" y="128" width="16" height="16" fill="#32b432"/>
  <rect x="128" y="128" width="16" height="16" fill="#228b22"/>
  <rect x="48" y="144" width="16" height="16" fill="#228b22"/>
  <rect x="64" y="144" width="16" height="16" fill="#146414"/>
  <rect x="80" y="144" width="16" height="16" fill="#32b432"/>
  <rect x="96" y="144" width="16" height="16" fill="#32b432"/>
  <rect x="112" y="144" width="16" height="16" fill="#228b22"/>
  <rect x="48" y="160" width="16" height="16" fill="#228b22"/>
  <rect x="64" y="160" width="16" height="16" fill="#146414"/>
  <rect x="80" y="160" width="16" height="16" fill="#146414"/>
  <rect x="96" y="160" width="16" height="16" fill="#228b22"/>
  <rect x="64" y="176" width="16" height="16" fill="#228b22"/>
  <rect x="80" y="176" width="16" height="16" fill="#228b22"/>
  <rect x="48" y="192" width="16" height="16" fill="#228b22"/>
  <rect x="80" y="192" width="16" height="16" fill="#228b22"/>
  <rect x="48" y="208" width="16" height="16" fill="#228b22"/>
  <rect x="80" y="208" width="16" height="16" fill="#228b22"/>
</svg>