<svg xmlns="http://www.w3.org/2000/svg" viewBox="0 0 32 32" width="128" height="128" shape-rendering="crispEdges">
  <!-- SUNFLOWER — Happy Mood -->
  <!-- Petals (golden yellow) -->
  <rect x="12" y="4" width="4" height="4" fill="#f0c850"/>
  <rect x="16" y="4" width="4" height="4" fill="#f0c850"/>
  <rect x="8" y="8" width="4" height="4" fill="#f0c850"/>
  <rect x="20" y="8" width="4" height="4" fill="#f0c850"/>
  <rect x="4" y="12" width="4" height="4" fill="#f0c850"/>
  <rect x="24" y="12" width="4" height="4" fill="#f0c850"/>
  <rect x="4" y="16" width="4" height="4" fill="#e8b830"/>
  <rect x="24" y="16" width="4" height="4" fill="#e8b830"/>
  <rect x="8" y="20" width="4" height="4" fill="#e8b830"/>
  <rect x="20" y="20" width="4" height="4" fill="#e8b830"/>
  <!-- Center (brown) -->
  <rect x="12" y="12" width="4" height="4" fill="#8B5E3C"/>
  <rect x="16" y="12" width="4" height="4" fill="#8B5E3C"/>
  <rect x="12" y="16" width="4" height="4" fill="#6B4226"/>
  <rect x="16" y="16" width="4" height="4" fill="#6B4226"/>
  <rect x="8" y="12" width="4" height="4" fill="#f5d87a"/>
  <rect x="20" y="12" width="4" height="4" fill="#f5d87a"/>
  <rect x="8" y="16" width="4" height="4" fill="#f5d87a"/>
  <rect x="20" y="16" width="4" height="4" fill="#f5d87a"/>
  <!-- Stem -->
  <rect x="14" y="24" width="4" height="4" fill="#3a8f5c"/>
  <rect x="14" y="28" width="4" height="4" fill="#2d7a4a"/>
  <!-- Leaf -->
  <rect x="18" y="26" width="4" height="4" fill="#6bbe8a"/>
  <rect x="10" y="28" width="4" height="4" fill="#6bbe8a"/>
</svg>
