<svg xmlns="http://www.w3.org/2000/svg" viewBox="0 0 32 32" shape-rendering="crispEdges">
  <!-- Page -->
  <rect x="5" y="3" width="22" height="26" fill="#1a2e22"/>
  <rect x="5" y="3" width="22" height="2" fill="#69f0ae"/>
  <rect x="5" y="27" width="22" height="2" fill="#69f0ae"/>
  <rect x="5" y="3" width="2" height="26" fill="#69f0ae"/>
  <rect x="25" y="3" width="2" height="26" fill="#69f0ae"/>
  <!-- Folded corner -->
  <rect x="19" y="3" width="6" height="6" fill="#0a1a0f"/>
  <rect x="19" y="3" width="6" height="2" fill="#1a2e22"/>
  <rect x="25" y="3" width="2" height="6" fill="#1a2e22"/>
  <rect x="19" y="9" width="6" height="2" fill="#69f0ae"/>
  <rect x="19" y="3" width="2" height="8" fill="#69f0ae"/>
  <!-- Lines -->
  <rect x="9" y="13" width="14" height="2" fill="#00e676"/>
  <rect x="9" y="17" width="10" height="2" fill="#4a6258"/>
  <rect x="9" y="21" width="12" height="2" fill="#4a6258"/>
  <!-- Bullet dots -->
  <rect x="9" y="13" width="2" height="2" fill="#ffd54f"/>
  <rect x="9" y="17" width="2" height="2" fill="#ffd54f"/>
  <rect x="9" y="21" width="2" height="2" fill="#ffd54f"/>
</svg>
