<svg xmlns="http://www.w3.org/2000/svg" viewBox="0 0 1512 982" width="1512" height="982" shape-rendering="crispEdges">

  <!-- ═══════════════════════════════════════════════════════ -->
  <!-- SKY -->
  <!-- ═══════════════════════════════════════════════════════ -->
  <rect x="0" y="0" width="1512" height="420" fill="#c8e4f8"/>
  <rect x="0" y="0" width="1512" height="120" fill="#b0d8f5"/>
  <rect x="0" y="120" width="1512" height="100" fill="#bce0f6"/>

  <!-- Sun -->
  <rect x="1260" y="60" width="48" height="48" fill="#f5e4a0"/>
  <rect x="1266" y="66" width="36" height="36" fill="#f0c850"/>
  <rect x="1272" y="72" width="24" height="24" fill="#ffeaa6"/>
  <!-- Sun rays -->
  <rect x="1278" y="42" width="12" height="12" fill="#f5e4a0"/>
  <rect x="1278" y="114" width="12" height="12" fill="#f5e4a0"/>
  <rect x="1242" y="78" width="12" height="12" fill="#f5e4a0"/>
  <rect x="1314" y="78" width="12" height="12" fill="#f5e4a0"/>
  <rect x="1248" y="48" width="12" height="12" fill="#f5e4a0"/>
  <rect x="1308" y="48" width="12" height="12" fill="#f5e4a0"/>
  <rect x="1248" y="108" width="12" height="12" fill="#f5e4a0"/>
  <rect x="1308" y="108" width="12" height="12" fill="#f5e4a0"/>

  <!-- Cloud 1 -->
  <rect x="180" y="72" width="48" height="24" fill="#ffffff"/>
  <rect x="156" y="84" width="96" height="24" fill="#ffffff"/>
  <rect x="144" y="96" width="120" height="18" fill="#f5f5f5"/>
  <rect x="168" y="60" width="36" height="18" fill="#ffffff"/>
  <rect x="216" y="66" width="24" height="18" fill="#ffffff"/>

  <!-- Cloud 2 -->
  <rect x="540" y="42" width="60" height="24" fill="#ffffff"/>
  <rect x="516" y="54" width="108" height="24" fill="#ffffff"/>
  <rect x="504" y="66" width="132" height="18" fill="#f5f5f5"/>
  <rect x="564" y="30" width="30" height="18" fill="#ffffff"/>

  <!-- Cloud 3 -->
  <rect x="900" y="96" width="42" height="18" fill="#ffffff"/>
  <rect x="882" y="108" width="78" height="18" fill="#ffffff"/>
  <rect x="876" y="120" width="90" height="12" fill="#f5f5f5"/>

  <!-- ═══════════════════════════════════════════════════════ -->
  <!-- DISTANT HILLS -->
  <!-- ═══════════════════════════════════════════════════════ -->
  <rect x="0" y="330" width="1512" height="90" fill="#a8d4a0"/>
  <rect x="0" y="340" width="400" height="80" fill="#98cc90"/>
  <rect x="300" y="320" width="500" height="100" fill="#a0d098"/>
  <rect x="700" y="335" width="400" height="85" fill="#95ca8e"/>
  <rect x="1000" y="325" width="512" height="95" fill="#9ed095"/>
  <!-- Hill bumps -->
  <rect x="100" y="318" width="180" height="24" fill="#a8d4a0"/>
  <rect x="140" y="306" width="100" height="18" fill="#b0daa8"/>
  <rect x="500" y="310" width="200" height="24" fill="#a8d4a0"/>
  <rect x="550" y="300" width="100" height="18" fill="#b0daa8"/>
  <rect x="1100" y="312" width="160" height="24" fill="#a8d4a0"/>
  <rect x="1140" y="302" width="80" height="16" fill="#b0daa8"/>

  <!-- ═══════════════════════════════════════════════════════ -->
  <!-- MAIN GROUND -->
  <!-- ═══════════════════════════════════════════════════════ -->
  <rect x="0" y="420" width="1512" height="562" fill="#8bc47a"/>
  <rect x="0" y="500" width="1512" height="482" fill="#7dba6e"/>
  <rect x="0" y="600" width="1512" height="382" fill="#72b264"/>
  <rect x="0" y="780" width="1512" height="202" fill="#68aa5a"/>
  <rect x="0" y="900" width="1512" height="82" fill="#5ea050"/>

  <!-- Dirt path -->
  <rect x="0" y="680" width="300" height="48" fill="#d4c4a0"/>
  <rect x="240" y="660" width="48" height="72" fill="#d4c4a0"/>
  <rect x="240" y="660" width="360" height="48" fill="#d4c4a0"/>
  <rect x="552" y="640" width="48" height="72" fill="#d4c4a0"/>
  <rect x="552" y="640" width="400" height="48" fill="#d4c4a0"/>
  <rect x="900" y="620" width="48" height="72" fill="#d4c4a0"/>
  <rect x="900" y="620" width="350" height="48" fill="#d4c4a0"/>
  <rect x="1200" y="640" width="48" height="120" fill="#d4c4a0"/>
  <rect x="1200" y="720" width="312" height="48" fill="#d4c4a0"/>
  <!-- Path edges -->
  <rect x="0" y="678" width="300" height="6" fill="#c4b490"/>
  <rect x="240" y="658" width="360" height="6" fill="#c4b490"/>
  <rect x="552" y="638" width="400" height="6" fill="#c4b490"/>
  <rect x="900" y="618" width="350" height="6" fill="#c4b490"/>
  <!-- Path speckles -->
  <rect x="60" y="696" width="6" height="6" fill="#c8b894"/>
  <rect x="150" y="690" width="6" height="6" fill="#c8b894"/>
  <rect x="330" y="672" width="6" height="6" fill="#c8b894"/>
  <rect x="450" y="678" width="6" height="6" fill="#c8b894"/>
  <rect x="660" y="654" width="6" height="6" fill="#c8b894"/>
  <rect x="780" y="660" width="6" height="6" fill="#c8b894"/>
  <rect x="1020" y="636" width="6" height="6" fill="#c8b894"/>
  <!-- Small stones on path -->
  <rect x="100" y="700" width="8" height="6" fill="#bab0a0"/>
  <rect x="200" y="695" width="6" height="4" fill="#c0b6a6"/>
  <rect x="350" y="678" width="8" height="6" fill="#bab0a0"/>
  <rect x="500" y="665" width="6" height="4" fill="#c0b6a6"/>
  <rect x="720" y="648" width="8" height="4" fill="#bab0a0"/>
  <rect x="1000" y="640" width="6" height="4" fill="#c0b6a6"/>
  <rect x="1130" y="642" width="8" height="4" fill="#bab0a0"/>
  <rect x="1300" y="740" width="6" height="4" fill="#bab0a0"/>
  <rect x="1420" y="736" width="8" height="6" fill="#c0b6a6"/>

  <!-- ═══════════════════════════════════════════════════════ -->
  <!-- WOODEN FENCE -->
  <!-- ═══════════════════════════════════════════════════════ -->
  <!-- Horizontal rails -->
  <rect x="60" y="430" width="600" height="12" fill="#a08060"/>
  <rect x="60" y="460" width="600" height="12" fill="#a08060"/>
  <rect x="820" y="430" width="630" height="12" fill="#a08060"/>
  <rect x="820" y="460" width="630" height="12" fill="#a08060"/>
  <!-- Vertical posts -->
  <rect x="60" y="410" width="18" height="90" fill="#8a6a48"/>
  <rect x="180" y="410" width="18" height="90" fill="#8a6a48"/>
  <rect x="300" y="410" width="18" height="90" fill="#8a6a48"/>
  <rect x="420" y="410" width="18" height="90" fill="#8a6a48"/>
  <rect x="540" y="410" width="18" height="90" fill="#8a6a48"/>
  <rect x="660" y="410" width="18" height="90" fill="#8a6a48"/>
  <rect x="820" y="410" width="18" height="90" fill="#8a6a48"/>
  <rect x="940" y="410" width="18" height="90" fill="#8a6a48"/>
  <rect x="1060" y="410" width="18" height="90" fill="#8a6a48"/>
  <rect x="1180" y="410" width="18" height="90" fill="#8a6a48"/>
  <rect x="1300" y="410" width="18" height="90" fill="#8a6a48"/>
  <rect x="1430" y="410" width="18" height="90" fill="#8a6a48"/>
  <!-- Post caps -->
  <rect x="56" y="404" width="26" height="10" fill="#9a7a58"/>
  <rect x="176" y="404" width="26" height="10" fill="#9a7a58"/>
  <rect x="296" y="404" width="26" height="10" fill="#9a7a58"/>
  <rect x="416" y="404" width="26" height="10" fill="#9a7a58"/>
  <rect x="536" y="404" width="26" height="10" fill="#9a7a58"/>
  <rect x="656" y="404" width="26" height="10" fill="#9a7a58"/>
  <rect x="816" y="404" width="26" height="10" fill="#9a7a58"/>
  <rect x="936" y="404" width="26" height="10" fill="#9a7a58"/>
  <rect x="1056" y="404" width="26" height="10" fill="#9a7a58"/>
  <rect x="1176" y="404" width="26" height="10" fill="#9a7a58"/>
  <rect x="1296" y="404" width="26" height="10" fill="#9a7a58"/>
  <rect x="1426" y="404" width="26" height="10" fill="#9a7a58"/>

  <!-- ═══════════════════════════════════════════════════════ -->
  <!-- LARGE TREE (left side) -->
  <!-- ═══════════════════════════════════════════════════════ -->
  <!-- Trunk -->
  <rect x="120" y="300" width="42" height="240" fill="#8a6a48"/>
  <rect x="126" y="300" width="30" height="240" fill="#9a7a58"/>
  <rect x="132" y="300" width="18" height="240" fill="#a08060"/>
  <!-- Trunk texture -->
  <rect x="126" y="350" width="6" height="12" fill="#7a5a38"/>
  <rect x="138" y="400" width="6" height="18" fill="#7a5a38"/>
  <rect x="126" y="460" width="6" height="12" fill="#7a5a38"/>
  <!-- Roots -->
  <rect x="96" y="520" width="36" height="18" fill="#7a5a38"/>
  <rect x="150" y="525" width="30" height="15" fill="#7a5a38"/>
  <rect x="78" y="530" width="24" height="12" fill="#6a4a28"/>
  <rect x="168" y="532" width="24" height="12" fill="#6a4a28"/>
  <!-- Canopy -->
  <rect x="48" y="210" width="192" height="42" fill="#4aaa6a"/>
  <rect x="24" y="240" width="240" height="48" fill="#3a9a5a"/>
  <rect x="12" y="270" width="264" height="42" fill="#348a54"/>
  <rect x="36" y="300" width="216" height="24" fill="#2d7a4a"/>
  <rect x="60" y="192" width="168" height="30" fill="#5abb7a"/>
  <rect x="84" y="174" width="120" height="24" fill="#6bbe8a"/>
  <rect x="108" y="162" width="72" height="18" fill="#7ec9a0"/>
  <!-- Branch right (parrot perch) -->
  <rect x="162" y="280" width="150" height="12" fill="#8a6a48"/>
  <rect x="162" y="276" width="150" height="6" fill="#9a7a58"/>
  <rect x="300" y="274" width="30" height="12" fill="#7a5a38"/>
  <rect x="318" y="270" width="18" height="12" fill="#6a4a28"/>
  <!-- Branch left -->
  <rect x="48" y="300" width="78" height="10" fill="#8a6a48"/>
  <rect x="36" y="296" width="24" height="10" fill="#7a5a38"/>

  <!-- ═══════════════════════════════════════════════════════ -->
  <!-- GARDEN BED 1 (left) -->
  <!-- ═══════════════════════════════════════════════════════ -->
  <rect x="60" y="570" width="240" height="90" fill="#b09870" rx="0"/>
  <rect x="66" y="576" width="228" height="78" fill="#c4a880"/>
  <!-- Border stones -->
  <rect x="54" y="564" width="252" height="12" fill="#d0c0a0"/>
  <rect x="54" y="654" width="252" height="12" fill="#c0b090"/>
  <rect x="54" y="564" width="12" height="102" fill="#d0c0a0"/>
  <rect x="294" y="564" width="12" height="102" fill="#c0b090"/>

  <!-- ═══════════════════════════════════════════════════════ -->
  <!-- GARDEN BED 2 (center) -->
  <!-- ═══════════════════════════════════════════════════════ -->
  <rect x="480" y="520" width="270" height="100" fill="#b09870"/>
  <rect x="486" y="526" width="258" height="88" fill="#c4a880"/>
  <rect x="474" y="514" width="282" height="12" fill="#d0c0a0"/>
  <rect x="474" y="614" width="282" height="12" fill="#c0b090"/>
  <rect x="474" y="514" width="12" height="112" fill="#d0c0a0"/>
  <rect x="744" y="514" width="12" height="112" fill="#c0b090"/>

  <!-- ═══════════════════════════════════════════════════════ -->
  <!-- GARDEN BED 3 (right) -->
  <!-- ═══════════════════════════════════════════════════════ -->
  <rect x="870" y="540" width="210" height="90" fill="#b09870"/>
  <rect x="876" y="546" width="198" height="78" fill="#c4a880"/>
  <rect x="864" y="534" width="222" height="12" fill="#d0c0a0"/>
  <rect x="864" y="624" width="222" height="12" fill="#c0b090"/>
  <rect x="864" y="534" width="12" height="102" fill="#d0c0a0"/>
  <rect x="1074" y="534" width="12" height="102" fill="#c0b090"/>

  <!-- ═══════════════════════════════════════════════════════ -->
  <!-- GARDEN BED 4 (far right — small) -->
  <!-- ═══════════════════════════════════════════════════════ -->
  <rect x="1320" y="580" width="150" height="72" fill="#b09870"/>
  <rect x="1326" y="586" width="138" height="60" fill="#c4a880"/>
  <rect x="1314" y="574" width="162" height="12" fill="#d0c0a0"/>
  <rect x="1314" y="646" width="162" height="12" fill="#c0b090"/>
  <rect x="1314" y="574" width="12" height="84" fill="#d0c0a0"/>
  <rect x="1464" y="574" width="12" height="84" fill="#c0b090"/>

  <!-- ═══════════════════════════════════════════════════════ -->
  <!-- RIGHT TREE (trunk only — anchor tree location) -->
  <!-- ═══════════════════════════════════════════════════════ -->
  <rect x="1230" y="380" width="24" height="160" fill="#8B5E3C"/>
  <rect x="1236" y="380" width="12" height="160" fill="#9a7050"/>
  <!-- Roots -->
  <rect x="1218" y="530" width="18" height="12" fill="#7a5030"/>
  <rect x="1248" y="530" width="18" height="12" fill="#7a5030"/>
  <rect x="1212" y="536" width="12" height="8" fill="#6a4428"/>
  <rect x="1260" y="536" width="12" height="8" fill="#6a4428"/>
  <!-- Bare canopy structure -->
  <rect x="1200" y="340" width="84" height="18" fill="#4aaa6a"/>
  <rect x="1188" y="352" width="108" height="18" fill="#3a9a5a"/>
  <rect x="1194" y="364" width="96" height="18" fill="#348a54"/>
  <rect x="1206" y="376" width="72" height="12" fill="#2d7a4a"/>
  <rect x="1206" y="328" width="72" height="18" fill="#5abb7a"/>
  <rect x="1218" y="318" width="48" height="16" fill="#6bbe8a"/>

  <!-- ═══════════════════════════════════════════════════════ -->
  <!-- WATERING CAN -->
  <!-- ═══════════════════════════════════════════════════════ -->
  <g transform="translate(440, 700)">
    <rect x="6" y="6" width="24" height="18" fill="#7aaac4"/>
    <rect x="12" y="6" width="12" height="18" fill="#8abcd4"/>
    <rect x="0" y="12" width="6" height="8" fill="#6a9ab4"/>
    <rect x="30" y="6" width="12" height="6" fill="#6a9ab4"/>
    <rect x="36" y="0" width="6" height="8" fill="#6a9ab4"/>
    <rect x="6" y="0" width="24" height="6" fill="#8abcd4"/>
    <rect x="42" y="4" width="3" height="4" fill="#a0d4e8"/>
    <rect x="38" y="6" width="3" height="3" fill="#a0d4e8"/>
  </g>

  <!-- ═══════════════════════════════════════════════════════ -->
  <!-- GARDEN SIGN -->
  <!-- ═══════════════════════════════════════════════════════ -->
  <g transform="translate(720, 730)">
    <rect x="24" y="24" width="12" height="60" fill="#8a6a48"/>
    <rect x="0" y="0" width="60" height="30" fill="#d4c4a0"/>
    <rect x="3" y="3" width="54" height="24" fill="#e8dcc4"/>
    <rect x="24" y="8" width="4" height="10" fill="#3a8f5c"/>
    <rect x="20" y="10" width="4" height="4" fill="#6bbe8a"/>
    <rect x="28" y="8" width="4" height="4" fill="#6bbe8a"/>
  </g>

  <!-- ═══════════════════════════════════════════════════════ -->
  <!-- SMALL DECORATIVE ELEMENTS -->
  <!-- ═══════════════════════════════════════════════════════ -->
  <!-- Butterflies -->
  <g transform="translate(500, 450)">
    <rect x="0" y="0" width="6" height="6" fill="#f0c850"/>
    <rect x="12" y="0" width="6" height="6" fill="#f0c850"/>
    <rect x="6" y="3" width="6" height="4" fill="#d4960a"/>
    <rect x="0" y="6" width="4" height="4" fill="#e8b830"/>
    <rect x="14" y="6" width="4" height="4" fill="#e8b830"/>
  </g>
  <g transform="translate(1000, 500)">
    <rect x="0" y="0" width="6" height="6" fill="#f5a0b8"/>
    <rect x="12" y="0" width="6" height="6" fill="#f5a0b8"/>
    <rect x="6" y="3" width="6" height="4" fill="#d45a7a"/>
    <rect x="0" y="6" width="4" height="4" fill="#e87ba0"/>
    <rect x="14" y="6" width="4" height="4" fill="#e87ba0"/>
  </g>

  <!-- Mushrooms near tree -->
  <rect x="84" y="528" width="8" height="8" fill="#e86a5e"/>
  <rect x="80" y="524" width="16" height="6" fill="#e8806e"/>
  <rect x="86" y="536" width="4" height="6" fill="#d4c4a0"/>
  <rect x="192" y="534" width="6" height="6" fill="#d45a7a"/>
  <rect x="189" y="530" width="12" height="6" fill="#e87ba0"/>
  <rect x="193" y="540" width="4" height="4" fill="#d4c4a0"/>

  <!-- Grass tufts -->
  <rect x="400" y="558" width="4" height="10" fill="#5abb7a"/>
  <rect x="406" y="560" width="4" height="8" fill="#6bbe8a"/>
  <rect x="780" y="618" width="4" height="8" fill="#5abb7a"/>
  <rect x="786" y="620" width="4" height="6" fill="#4aaa6a"/>
  <rect x="1150" y="548" width="4" height="10" fill="#5abb7a"/>
  <rect x="1156" y="550" width="4" height="8" fill="#6bbe8a"/>
  <rect x="50" y="700" width="4" height="8" fill="#5abb7a"/>
  <rect x="56" y="702" width="4" height="6" fill="#6bbe8a"/>
  <rect x="1400" y="700" width="4" height="8" fill="#5abb7a"/>
  <rect x="340" y="540" width="4" height="8" fill="#5abb7a"/>
  <rect x="346" y="542" width="4" height="6" fill="#6bbe8a"/>
  <rect x="820" y="490" width="4" height="8" fill="#5abb7a"/>
  <rect x="826" y="492" width="4" height="6" fill="#6bbe8a"/>
  <rect x="1120" y="680" width="4" height="8" fill="#5abb7a"/>
  <rect x="1126" y="682" width="4" height="6" fill="#6bbe8a"/>

  <!-- Tiny wildflowers scattered in grass -->
  <rect x="370" y="500" width="4" height="4" fill="#f0c850"/>
  <rect x="810" y="580" width="4" height="4" fill="#f5a0b8"/>
  <rect x="1140" y="520" width="4" height="4" fill="#f0c850"/>
  <rect x="760" y="490" width="4" height="4" fill="#c4baf5"/>
  <rect x="420" y="640" width="4" height="4" fill="#f5a0b8"/>
  <rect x="1100" y="600" width="4" height="4" fill="#f0c850"/>
  <rect x="340" y="740" width="4" height="4" fill="#c4baf5"/>
  <rect x="900" y="780" width="4" height="4" fill="#f0c850"/>
  <rect x="600" y="800" width="4" height="4" fill="#f5a0b8"/>
  <rect x="1350" y="700" width="4" height="4" fill="#c4baf5"/>

</svg>
